<svg width="37" height="37" viewBox="0 0 37 37" fill="none" xmlns="http://www.w3.org/2000/svg">
<path d="M18.2852 4.35367e-07C15.129 -0.000688291 12.0264 0.81578 9.27936 2.36993C6.53231 3.92409 4.23442 6.16298 2.60937 8.86869C0.984317 11.5744 0.087454 14.6547 0.00607842 17.8099C-0.0752971 20.9651 0.661587 24.0876 2.14501 26.8734L0.149889 32.8588C-0.0153727 33.3543 -0.039356 33.8861 0.0806271 34.3945C0.20061 34.903 0.459818 35.3679 0.829198 35.7373C1.19858 36.1067 1.66353 36.3659 2.17195 36.4859C2.68036 36.6058 3.21215 36.5819 3.7077 36.4166L9.69305 34.4215C12.1448 35.7255 14.8614 36.4539 17.6367 36.5513C20.4119 36.6486 23.1729 36.1125 25.71 34.9835C28.2471 33.8545 30.4937 32.1624 32.2792 30.0355C34.0647 27.9087 35.3422 25.403 36.0148 22.7087C36.6873 20.0144 36.7372 17.2023 36.1607 14.4858C35.5841 11.7694 34.3963 9.21997 32.6874 7.0311C30.9785 4.84224 28.7934 3.07146 26.2979 1.85318C23.8024 0.634902 21.0622 0.00113947 18.2852 4.35367e-07ZM18.2852 33.75C15.5659 33.7519 12.8942 33.0357 10.5403 31.674C10.368 31.5741 10.1764 31.5119 9.97817 31.4916C9.77998 31.4713 9.57974 31.4933 9.39071 31.5563L2.81649 33.75L5.00848 27.1758C5.07167 26.9869 5.094 26.7867 5.074 26.5885C5.054 26.3903 4.99212 26.1986 4.89247 26.0262C3.18734 23.0782 2.50274 19.6498 2.94486 16.2731C3.38699 12.8963 4.93113 9.75976 7.33774 7.3501C9.74435 4.94045 12.8789 3.39235 16.2551 2.94596C19.6314 2.49957 23.0605 3.17984 26.0107 4.88124C28.9609 6.58265 31.2671 9.21007 32.5716 12.3559C33.8761 15.5018 34.106 18.9902 33.2257 22.2801C32.3453 25.5699 30.4038 28.4773 27.7024 30.5512C25.0011 32.625 21.6909 33.7494 18.2852 33.75Z" fill="black"/>
</svg>
