<svg width="40" height="40" viewBox="0 0 40 40" fill="none" xmlns="http://www.w3.org/2000/svg">
<path d="M38.5151 9.41889C38.9915 7.96086 39.1548 6.41872 38.9945 4.89324C38.8343 3.36775 38.3539 1.89325 37.5849 0.566065C37.4855 0.393861 37.3425 0.250881 37.1702 0.151515C36.998 0.0521478 36.8026 -0.000100661 36.6038 2.68265e-05C34.8722 -0.00381449 33.1647 0.404928 31.6225 1.1924C30.0804 1.97988 28.748 3.12342 27.7358 4.52833H22.8302C21.818 3.12342 20.4857 1.97988 18.9435 1.1924C17.4014 0.404928 15.6938 -0.00381449 13.9623 2.68265e-05C13.7634 -0.000100661 13.5681 0.0521478 13.3958 0.151515C13.2236 0.250881 13.0806 0.393861 12.9811 0.566065C12.2121 1.89325 11.7318 3.36775 11.5715 4.89324C11.4112 6.41872 11.5746 7.96086 12.0509 9.41889C11.0958 11.0224 10.5833 12.8507 10.566 14.717V16.2264C10.5694 18.8115 11.5541 21.2988 13.3211 23.1857C15.0881 25.0725 17.5056 26.218 20.0849 26.3906C18.8184 27.7195 18.1124 29.4851 18.1132 31.3208V33.2076H13.2075C11.9065 33.2076 10.6587 32.6907 9.73872 31.7707C8.81873 30.8507 8.30189 29.603 8.30189 28.3019C8.30189 26.4004 7.5465 24.5767 6.2019 23.2321C4.8573 21.8875 3.03363 21.1321 1.13208 21.1321C0.83183 21.1321 0.543883 21.2514 0.331577 21.4637C0.119272 21.676 0 21.9639 0 22.2642C0 22.5644 0.119272 22.8524 0.331577 23.0647C0.543883 23.277 0.83183 23.3963 1.13208 23.3963C2.43314 23.3963 3.68091 23.9131 4.6009 24.8331C5.52089 25.7531 6.03774 27.0009 6.03774 28.3019C6.03774 30.2035 6.79312 32.0271 8.13773 33.3717C9.48233 34.7163 11.306 35.4717 13.2075 35.4717H18.1132V38.868C18.1132 39.1682 18.2325 39.4561 18.4448 39.6684C18.6571 39.8808 18.945 40 19.2453 40C19.5455 40 19.8335 39.8808 20.0458 39.6684C20.2581 39.4561 20.3774 39.1682 20.3774 38.868V31.3208C20.3774 30.0197 20.8942 28.7719 21.8142 27.852C22.7342 26.932 23.982 26.4151 25.283 26.4151C26.5841 26.4151 27.8319 26.932 28.7518 27.852C29.6718 28.7719 30.1887 30.0197 30.1887 31.3208V38.868C30.1887 39.1682 30.308 39.4561 30.5203 39.6684C30.7326 39.8808 31.0205 40 31.3208 40C31.621 40 31.9089 39.8808 32.1213 39.6684C32.3336 39.4561 32.4528 39.1682 32.4528 38.868V31.3208C32.4537 29.4851 31.7476 27.7195 30.4811 26.3906C33.0604 26.218 35.4779 25.0725 37.245 23.1857C39.012 21.2988 39.9967 18.8115 40 16.2264V14.717C39.9827 12.8507 39.4703 11.0224 38.5151 9.41889ZM37.7359 16.2264C37.7359 18.3282 36.9009 20.3438 35.4148 21.8299C33.9287 23.3161 31.913 24.151 29.8113 24.151H20.7547C18.653 24.151 16.6374 23.3161 15.1512 21.8299C13.6651 20.3438 12.8302 18.3282 12.8302 16.2264V14.717C12.8499 13.1256 13.3282 11.5737 14.2075 10.2472C14.3231 10.0939 14.3977 9.91367 14.4245 9.72356C14.4512 9.53344 14.4291 9.33965 14.3604 9.16041C13.9332 8.05741 13.7367 6.87852 13.7831 5.69659C13.8295 4.51467 14.1178 3.35481 14.6302 2.28871C15.9714 2.38989 17.2705 2.8024 18.4244 3.49348C19.5783 4.18457 20.5551 5.13519 21.2774 6.26984C21.3798 6.43015 21.5209 6.56208 21.6878 6.65342C21.8547 6.74477 22.0418 6.79259 22.2321 6.79248H28.334C28.524 6.7928 28.7111 6.74526 28.8779 6.65425C29.0448 6.56324 29.186 6.43169 29.2887 6.27173C30.0105 5.13652 30.9872 4.18538 32.1411 3.49393C33.2951 2.80249 34.5944 2.38981 35.9359 2.28871C36.4482 3.35481 36.7365 4.51467 36.7829 5.69659C36.8293 6.87852 36.6329 8.05741 36.2057 9.16041C36.137 9.33883 36.1147 9.53172 36.1408 9.7211C36.1669 9.91048 36.2405 10.0902 36.3547 10.2434C37.2369 11.5702 37.7166 13.1238 37.7359 14.717V16.2264Z" fill="black"/>
</svg>
