<svg width="24" height="24" viewBox="0 0 24 24" fill="none" xmlns="http://www.w3.org/2000/svg">
<path d="M22 0H6C5.46957 0 4.96086 0.210714 4.58579 0.585786C4.21071 0.960859 4 1.46957 4 2V4H2C1.46957 4 0.960859 4.21071 0.585786 4.58579C0.210714 4.96086 0 5.46957 0 6V22C0 22.5304 0.210714 23.0391 0.585786 23.4142C0.960859 23.7893 1.46957 24 2 24H18C18.5304 24 19.0391 23.7893 19.4142 23.4142C19.7893 23.0391 20 22.5304 20 22V20H22C22.5304 20 23.0391 19.7893 23.4142 19.4142C23.7893 19.0391 24 18.5304 24 18V2C24 1.46957 23.7893 0.960859 23.4142 0.585786C23.0391 0.210714 22.5304 0 22 0ZM6 2H22V10.6725L19.9125 8.585C19.5375 8.21021 19.029 7.99968 18.4988 7.99968C17.9685 7.99968 17.46 8.21021 17.085 8.585L7.67125 18H6V2ZM18 22H2V6H4V18C4 18.5304 4.21071 19.0391 4.58579 19.4142C4.96086 19.7893 5.46957 20 6 20H18V22ZM22 18H10.5L18.5 10L22 13.5V18ZM11 10C11.5933 10 12.1734 9.82405 12.6667 9.49441C13.1601 9.16476 13.5446 8.69623 13.7716 8.14805C13.9987 7.59987 14.0581 6.99667 13.9424 6.41473C13.8266 5.83279 13.5409 5.29824 13.1213 4.87868C12.7018 4.45912 12.1672 4.1734 11.5853 4.05764C11.0033 3.94189 10.4001 4.0013 9.85195 4.22836C9.30377 4.45542 8.83524 4.83994 8.50559 5.33329C8.17595 5.82664 8 6.40666 8 7C8 7.79565 8.31607 8.55871 8.87868 9.12132C9.44129 9.68393 10.2044 10 11 10ZM11 6C11.1978 6 11.3911 6.05865 11.5556 6.16853C11.72 6.27841 11.8482 6.43459 11.9239 6.61732C11.9996 6.80004 12.0194 7.00111 11.9808 7.19509C11.9422 7.38907 11.847 7.56725 11.7071 7.70711C11.5673 7.84696 11.3891 7.9422 11.1951 7.98079C11.0011 8.01937 10.8 7.99957 10.6173 7.92388C10.4346 7.84819 10.2784 7.72002 10.1685 7.55557C10.0586 7.39112 10 7.19778 10 7C10 6.73478 10.1054 6.48043 10.2929 6.29289C10.4804 6.10536 10.7348 6 11 6Z" fill="black"/>
</svg>
