<svg width="36" height="35" viewBox="0 0 36 35" fill="none" xmlns="http://www.w3.org/2000/svg">
<path d="M18 0C14.4399 0 10.9598 1.02636 7.99974 2.94928C5.03966 4.87221 2.73255 7.60533 1.37018 10.803C0.00779912 14.0007 -0.348661 17.5194 0.345873 20.9141C1.04041 24.3087 2.75474 27.4269 5.27208 29.8744C7.78943 32.3218 10.9967 33.9885 14.4884 34.6637C17.98 35.339 21.5992 34.9924 24.8883 33.6679C28.1774 32.3433 30.9886 30.1003 32.9665 27.2225C34.9443 24.3446 36 20.9612 36 17.5C35.995 12.8602 34.0969 8.41187 30.7224 5.13104C27.3478 1.85022 22.7724 0.00489969 18 0ZM18 32.3077C14.9876 32.3077 12.0429 31.4392 9.53824 29.8121C7.03356 28.185 5.08139 25.8724 3.92861 23.1667C2.77583 20.4609 2.47421 17.4836 3.06189 14.6112C3.64958 11.7387 5.10017 9.10027 7.23023 7.02938C9.36029 4.95849 12.0742 3.54819 15.0286 2.97683C17.9831 2.40547 21.0455 2.69872 23.8286 3.81948C26.6116 4.94023 28.9903 6.83817 30.6639 9.27328C32.3375 11.7084 33.2308 14.5713 33.2308 17.5C33.2262 21.4259 31.6201 25.1897 28.7647 27.9657C25.9094 30.7417 22.038 32.3032 18 32.3077ZM26.3077 17.5C26.3077 17.857 26.1618 18.1994 25.9022 18.4519C25.6425 18.7043 25.2903 18.8461 24.9231 18.8461H14.419L17.595 21.9322C17.7236 22.0573 17.8257 22.2058 17.8953 22.3692C17.9649 22.5326 18.0008 22.7077 18.0008 22.8846C18.0008 23.0615 17.9649 23.2366 17.8953 23.4C17.8257 23.5635 17.7236 23.7119 17.595 23.837C17.4664 23.9621 17.3136 24.0613 17.1456 24.129C16.9775 24.1967 16.7973 24.2315 16.6154 24.2315C16.4335 24.2315 16.2533 24.1967 16.0852 24.129C15.9171 24.0613 15.7644 23.9621 15.6358 23.837L10.0973 18.4524C9.96858 18.3274 9.86645 18.1789 9.79677 18.0155C9.72709 17.8521 9.69122 17.6769 9.69122 17.5C9.69122 17.3231 9.72709 17.1479 9.79677 16.9845C9.86645 16.8211 9.96858 16.6726 10.0973 16.5476L15.6358 11.163C15.8956 10.9104 16.248 10.7685 16.6154 10.7685C16.9828 10.7685 17.3352 10.9104 17.595 11.163C17.8548 11.4156 18.0008 11.7582 18.0008 12.1154C18.0008 12.4726 17.8548 12.8152 17.595 13.0678L14.419 16.1538H24.9231C25.2903 16.1538 25.6425 16.2957 25.9022 16.5481C26.1618 16.8006 26.3077 17.143 26.3077 17.5Z" fill="#003146"/>
</svg>
