<svg width="201" height="66" viewBox="0 0 201 66" fill="none" xmlns="http://www.w3.org/2000/svg">
<path d="M197.716 0H140.235C138.517 0 137.108 1.44551 137.108 3.2257V62.5696C137.108 64.3436 138.515 65.7892 140.235 65.7892H197.716C199.432 65.7892 200.84 64.3436 200.84 62.5696V3.2257C200.842 1.44551 199.434 0 197.716 0Z" fill="#009EE2"/>
<path d="M196.577 39.2157C194.272 36.1973 188.631 35.5649 185.579 35.5649C172.854 35.5649 160.678 38.0063 149.478 42.4722C149.576 39.0452 149.48 35.6142 149.106 32.2283C157.633 29.6597 172.677 27.5961 182.579 28.4914C191.83 29.3291 195.314 34.6512 196.577 39.2157Z" fill="white"/>
<path d="M192.438 30.5017C189.859 28.0008 187.892 26.198 180.07 25.0297C172.249 23.8675 155.704 25.6251 148.381 27.5285C147.856 24.541 147.15 21.5904 146.267 18.6994C151.283 17.7898 156.446 17.3114 161.72 17.3114C166.842 17.3114 171.871 17.7631 176.754 18.6234C187.098 20.4529 190.39 26.4341 192.438 30.5017Z" fill="white"/>
<path d="M140.651 5.61084C167.286 4.8963 182.249 16.9347 185.228 20.2507C182.635 18.0188 177.631 16.1175 173.321 15.2592C168.024 14.21 162.557 13.6638 156.942 13.6638C152.839 13.6638 148.796 13.9595 144.846 14.5344C143.84 11.822 141.974 8.17949 140.651 5.61084Z" fill="white"/>
<path d="M192.432 56.6419C196.716 47.5028 195.711 45.9053 187.298 46.9628C174.221 48.6115 157.738 54.3915 145.285 61.3337C147.556 56.7959 148.664 52.2274 149.102 48.1064C161.125 42.657 174.353 39.5196 188.259 39.2363C202.817 38.9385 197.354 50.4369 192.432 56.6419Z" fill="white"/>
<path d="M84.1341 38.497C85.936 38.2259 88.617 38.0206 91.5964 38.0206C95.2738 38.0206 97.8434 38.5339 99.6116 39.8172C101.079 40.9054 101.891 43.1928 101.891 45.2974C101.891 48.211 100.069 50.2889 97.9389 51.0014V51.102C98.997 52.6256 105.326 61.0194 105.326 61.0194H99.1382L92.4894 52.0486H89.6871V61.0194H84.1341V38.497ZM89.6871 48.3239H91.8887C94.6851 48.3239 96.3379 47.0386 96.3379 45.0325C96.3379 42.9341 94.7925 41.8849 92.2209 41.85C90.8625 41.85 90.0868 41.9506 89.6851 42.0142L89.6871 48.3239ZM1.97748 55.7219C3.48903 56.4344 5.80409 57.1387 8.19472 57.1387C10.7703 57.1387 12.1307 56.1572 12.1307 54.6706C12.1307 53.2436 10.9573 52.4264 7.96998 51.4449C3.853 50.1226 1.16801 48.0262 1.16801 44.6979C1.16801 40.7946 4.69628 37.8112 10.5436 37.8112C13.3399 37.8112 15.4024 38.3594 16.8782 38.9692L15.6272 43.1374C14.6347 42.698 12.8686 42.0512 10.4362 42.0512C8.01174 42.0512 6.83035 43.0717 6.83035 44.2543C6.83035 45.7204 8.23251 46.359 11.4326 47.4759C15.8161 48.9748 17.8746 51.0692 17.8746 54.2949C17.8746 58.1222 14.6745 61.4177 7.86854 61.4177C5.0324 61.4177 2.23803 60.7073 0.839844 59.9927L1.97748 55.7219ZM34.5812 51.3772H25.4522V56.8061H35.6452V61.042H19.8217V38.1869H35.1301V42.4249H25.4562V47.1741H34.5832L34.5812 51.3772ZM58.3503 59.9927C56.6199 60.5389 53.3463 61.2822 50.0686 61.2822C45.5439 61.2822 42.2702 60.2268 39.985 58.1961C37.7017 56.2291 36.4507 53.2457 36.4885 49.8968C36.5283 42.2955 42.5228 37.9487 50.6573 37.9487C53.8574 37.9487 56.3216 38.5236 57.5388 39.0739L56.3634 43.2072C55.001 42.6672 53.3085 42.2216 50.5837 42.2216C45.9158 42.2216 42.3816 44.665 42.3816 49.6175C42.3816 54.3298 45.5817 57.114 50.18 57.114C51.4668 57.114 52.499 56.9785 52.9405 56.7752V51.9932L52.9564 47.9605H58.3483L58.3503 59.9927ZM66.4808 38.189V51.3464C66.4808 55.2764 68.0998 57.2783 70.9677 57.2783C73.9133 57.2783 75.5322 55.3872 75.5322 51.3464V38.189H81.1249V51.0076C81.1249 58.0647 77.2605 61.4177 70.7847 61.4177C64.5277 61.4177 60.8463 58.229 60.8463 50.9398V38.1931H66.4788L66.4808 38.189ZM127.215 49.3834C127.215 56.8697 122.285 61.4177 115.035 61.4177C107.674 61.4177 103.373 56.2968 103.373 49.7859C103.373 42.9382 108.12 37.8112 115.441 37.8112C123.06 37.8132 127.215 43.0717 127.215 49.3834ZM109.297 49.6812C109.297 54.1635 111.579 57.3173 115.33 57.3173C119.12 57.3173 121.292 53.9931 121.292 49.5539C121.292 45.4453 119.16 41.9116 115.292 41.9116C111.505 41.9157 109.297 45.242 109.297 49.6812Z" fill="black"/>
<path d="M20.4352 6.46575C18.4463 4.99355 15.4769 4.27901 11.356 4.27901C7.78793 4.27901 4.7708 4.4597 2.36426 4.82929V31.8053H8.65111C8.65111 31.3351 8.65111 21.8222 8.65111 21.8222L8.92159 21.8633C9.52621 21.9434 10.3218 21.9865 11.2128 21.9865C15.3656 21.9865 18.7089 20.9927 20.8688 19.1119C22.6031 17.5986 23.5578 15.3154 23.5578 12.7016C23.5637 10.1822 22.4261 7.90921 20.4352 6.46575ZM11.175 17.6582C10.097 17.6582 9.4029 17.6027 8.84204 17.4837L8.65111 17.4385V8.83524L8.82812 8.78185C9.14236 8.70999 10.0254 8.53135 11.716 8.53135C15.2025 8.53135 17.2828 10.1514 17.2828 12.8658C17.2828 15.8184 14.9419 17.6582 11.175 17.6582ZM39.2082 4.03467C30.7038 4.03467 24.7571 9.92142 24.7571 18.3563C24.7571 26.67 30.3717 32.2632 38.715 32.2632C47.5755 32.2632 53.2975 26.6105 53.2975 17.8573C53.2995 10.9748 48.9438 4.03467 39.2082 4.03467ZM39.075 27.7624C34.4648 27.7624 31.4894 24.0192 31.4894 18.229C31.4894 12.4285 34.5165 8.53135 39.0312 8.53135C43.4684 8.53135 46.5691 12.4531 46.5691 18.0647C46.5691 23.9576 43.6295 27.7624 39.075 27.7624ZM72.4007 20.1098L72.3549 20.0461V19.6622L72.52 19.6026C74.666 18.8922 77.17 16.7014 77.17 12.8925C77.17 10.2007 76.094 7.60327 74.4969 6.42058C72.4663 4.93811 69.4969 4.27901 64.8708 4.27901C61.6388 4.27901 58.4308 4.48228 56.0183 4.82723V31.8032H62.3031C62.3031 31.3269 62.3031 20.8675 62.3031 20.8675H66.08C66.08 20.8675 74.0355 31.6061 74.1807 31.8032H81.104C79.676 29.906 73.5383 21.7401 72.4007 20.1098ZM65.2307 16.8225H62.3051V8.69356L62.502 8.65865C63.3373 8.51903 64.3914 8.44922 65.6424 8.44922C69.0255 8.49439 70.8911 9.96043 70.8911 12.5763C70.8891 15.2004 68.7272 16.8225 65.2307 16.8225ZM100.776 4.48639C100.776 4.91347 100.776 8.8455 100.776 9.27258C100.325 9.27258 92.5341 9.27258 92.5341 9.27258C92.5341 9.27258 92.5341 31.3228 92.5341 31.8073C92.1045 31.8073 86.5933 31.8073 86.1597 31.8073C86.1597 31.3228 86.1597 9.27258 86.1597 9.27258C86.1597 9.27258 78.5045 9.27258 78.0531 9.27258C78.0531 8.8455 78.0531 4.91347 78.0531 4.48639C78.5244 4.48639 100.313 4.48639 100.776 4.48639ZM114.406 4.03467C105.903 4.03467 99.9566 9.92142 99.9566 18.3563C99.9566 26.67 105.563 32.2632 113.919 32.2632C122.775 32.2632 128.499 26.6105 128.499 17.8573C128.495 10.9748 124.143 4.03467 114.406 4.03467ZM114.273 27.7624C109.666 27.7624 106.693 24.0192 106.693 18.229C106.693 12.4285 109.718 8.53135 114.233 8.53135C118.674 8.53135 121.775 12.4531 121.775 18.0647C121.771 23.9576 118.831 27.7624 114.273 27.7624Z" fill="black"/>
</svg>
