<svg width="150" height="50" viewBox="0 0 150 50" fill="none" xmlns="http://www.w3.org/2000/svg">
<path d="M147.657 0H104.546C103.257 0 102.201 1.09859 102.201 2.45155V47.5531C102.201 48.9014 103.256 50 104.546 50H147.657C148.945 50 150.001 48.9014 150.001 47.5531V2.45155C150.002 1.09859 148.946 0 147.657 0Z" fill="#009EE2"/>
<path d="M146.803 29.804C145.074 27.5101 140.844 27.0294 138.554 27.0294C129.01 27.0294 119.878 28.8849 111.478 32.2789C111.551 29.6745 111.48 27.0669 111.199 24.4936C117.594 22.5414 128.877 20.9731 136.304 21.6535C143.242 22.2902 145.856 26.335 146.803 29.804Z" fill="white"/>
<path d="M143.704 23.1814C141.769 21.2807 140.294 19.9106 134.427 19.0227C128.562 18.1394 116.152 19.4752 110.66 20.9218C110.266 18.6513 109.737 16.4088 109.074 14.2116C112.836 13.5203 116.709 13.1567 120.665 13.1567C124.506 13.1567 128.278 13.5 131.94 14.1539C139.699 15.5443 142.167 20.09 143.704 23.1814Z" fill="white"/>
<path d="M104.865 4.26416C124.842 3.72111 136.064 12.8703 138.298 15.3905C136.353 13.6943 132.6 12.2492 129.368 11.597C125.395 10.7995 121.295 10.3844 117.084 10.3844C114.006 10.3844 110.974 10.6092 108.011 11.0461C107.256 8.98467 105.857 6.21635 104.865 4.26416Z" fill="white"/>
<path d="M143.698 43.0481C146.911 36.1023 146.158 34.8882 139.848 35.6919C130.04 36.945 117.677 41.3378 108.338 46.6139C110.041 43.1651 110.872 39.693 111.2 36.5611C120.218 32.4195 130.139 30.0351 140.569 29.8197C151.488 29.5935 147.39 38.3323 143.698 43.0481Z" fill="white"/>
<path d="M62.472 29.2578C63.8234 29.0518 65.8342 28.8957 68.0688 28.8957C70.8269 28.8957 72.7542 29.2859 74.0803 30.2612C75.1812 31.0882 75.7898 32.8266 75.7898 34.4262C75.7898 36.6405 74.4234 38.2197 72.8258 38.7612V38.8377C73.6194 39.9956 78.3659 46.3749 78.3659 46.3749H73.7253L68.7386 39.5571H66.6368V46.3749H62.472V29.2578ZM66.6368 36.7263H68.2881C70.3854 36.7263 71.625 35.7495 71.625 34.2248C71.625 32.63 70.4659 31.8326 68.5372 31.8061C67.5184 31.8061 66.9366 31.8825 66.6353 31.9309L66.6368 36.7263ZM0.853247 42.3488C1.98693 42.8903 3.72326 43.4256 5.51627 43.4256C7.44801 43.4256 8.46832 42.6796 8.46832 41.5498C8.46832 40.4653 7.58823 39.8442 5.34771 39.0983C2.25991 38.0933 0.246129 36.5001 0.246129 33.9705C0.246129 31.004 2.89239 28.7366 7.27795 28.7366C9.37527 28.7366 10.9222 29.1532 12.029 29.6167L11.0907 32.7845C10.3464 32.4506 9.02174 31.959 7.1974 31.959C5.37903 31.959 4.49297 32.7346 4.49297 33.6334C4.49297 34.7476 5.54461 35.2329 7.94474 36.0818C11.2324 37.221 12.7763 38.8127 12.7763 41.2643C12.7763 44.173 10.3762 46.6776 5.27163 46.6776C3.14448 46.6776 1.04866 46.1377 0 45.5947L0.853247 42.3488ZM25.3065 39.0468H18.4597V43.1728H26.1046V46.3921H14.2367V29.0221H25.7182V32.243H18.4626V35.8525H25.308L25.3065 39.0468ZM43.1337 45.5947C41.8359 46.0098 39.3806 46.5747 36.9223 46.5747C33.5287 46.5747 31.0734 45.7726 29.3594 44.2292C27.647 42.7343 26.7087 40.4669 26.737 37.9217C26.7669 32.1447 31.2628 28.8411 37.3638 28.8411C39.764 28.8411 41.6122 29.2781 42.5251 29.6963L41.6435 32.8376C40.6217 32.4272 39.3523 32.0885 37.3087 32.0885C33.8077 32.0885 31.1569 33.9455 31.1569 37.7094C31.1569 41.2908 33.5571 43.4068 37.0058 43.4068C37.971 43.4068 38.7452 43.3038 39.0763 43.1494V39.5149L39.0882 36.4501H43.1322L43.1337 45.5947ZM49.2317 29.0237V39.0234C49.2317 42.0102 50.446 43.5317 52.597 43.5317C54.8062 43.5317 56.0204 42.0945 56.0204 39.0234V29.0237H60.215V38.7659C60.215 44.1293 57.3167 46.6776 52.4597 46.6776C47.7669 46.6776 45.0058 44.2542 45.0058 38.7144V29.0268H49.2302L49.2317 29.0237ZM94.7835 37.5316C94.7835 43.2211 91.0856 46.6776 85.6484 46.6776C80.1276 46.6776 76.9011 42.7858 76.9011 37.8374C76.9011 32.6331 80.4618 28.7366 85.9527 28.7366C91.6673 28.7381 94.7835 32.7346 94.7835 37.5316ZM81.3448 37.7578C81.3448 41.1644 83.0558 43.5613 85.8691 43.5613C88.7123 43.5613 90.3412 41.0349 90.3412 37.6611C90.3412 34.5385 88.7421 31.8529 85.8408 31.8529C83.0006 31.856 81.3448 34.384 81.3448 37.7578Z" fill="white"/>
<path d="M14.698 4.91404C13.2063 3.79516 10.9792 3.25211 7.88846 3.25211C5.21237 3.25211 2.94948 3.38943 1.14453 3.67032V24.1722H5.85976C5.85976 23.8148 5.85976 16.585 5.85976 16.585L6.06263 16.6162C6.51611 16.6771 7.11278 16.7099 7.78106 16.7099C10.8957 16.7099 13.4032 15.9546 15.0232 14.5252C16.324 13.3751 17.04 11.6398 17.04 9.65328C17.0445 7.73854 16.1912 6.01107 14.698 4.91404ZM7.75272 13.4203C6.94422 13.4203 6.42362 13.3782 6.00297 13.2877L5.85976 13.2534V6.71486L5.99252 6.67428C6.22821 6.61967 6.89052 6.4839 8.15846 6.4839C10.7734 6.4839 12.3337 7.71514 12.3337 9.77812C12.3337 12.0221 10.578 13.4203 7.75272 13.4203ZM28.7781 3.06641C22.3996 3.06641 17.9395 7.54036 17.9395 13.9509C17.9395 20.2694 22.1505 24.5202 28.4081 24.5202C35.0536 24.5202 39.3452 20.2241 39.3452 13.5717C39.3467 8.3409 36.0799 3.06641 28.7781 3.06641ZM28.6781 21.0995C25.2204 21.0995 22.9888 18.2548 22.9888 13.8541C22.9888 9.44573 25.2592 6.4839 28.6453 6.4839C31.9733 6.4839 34.2988 9.46446 34.2988 13.7293C34.2988 18.2079 32.0941 21.0995 28.6781 21.0995ZM53.6729 15.2836L53.6386 15.2352V14.9434L53.7624 14.8981C55.3719 14.3582 57.25 12.6931 57.25 9.7984C57.25 7.75259 56.443 5.77856 55.2451 4.87971C53.7221 3.75303 51.495 3.25211 48.0254 3.25211C45.6014 3.25211 43.1953 3.4066 41.3858 3.66876V24.1706H46.0996C46.0996 23.8086 46.0996 15.8594 46.0996 15.8594H48.9323C48.9323 15.8594 54.8991 24.0208 55.008 24.1706H60.2005C59.1295 22.7287 54.5261 16.5226 53.6729 15.2836ZM48.2954 12.7852H46.1011V6.60718L46.2488 6.58065C46.8753 6.47454 47.6659 6.42148 48.6041 6.42148C51.1415 6.45581 52.5407 7.57001 52.5407 9.55809C52.5392 11.5524 50.9177 12.7852 48.2954 12.7852ZM74.9548 3.40972C74.9548 3.7343 74.9548 6.72266 74.9548 7.04724C74.6162 7.04724 68.7733 7.04724 68.7733 7.04724C68.7733 7.04724 68.7733 23.8055 68.7733 24.1737C68.4511 24.1737 64.3176 24.1737 63.9924 24.1737C63.9924 23.8055 63.9924 7.04724 63.9924 7.04724C63.9924 7.04724 58.2509 7.04724 57.9123 7.04724C57.9123 6.72266 57.9123 3.7343 57.9123 3.40972C58.2658 3.40972 74.6073 3.40972 74.9548 3.40972ZM85.1774 3.06641C78.8004 3.06641 74.3403 7.54036 74.3403 13.9509C74.3403 20.2694 78.5453 24.5202 84.8119 24.5202C91.4544 24.5202 95.7475 20.2241 95.7475 13.5717C95.7445 8.3409 92.4807 3.06641 85.1774 3.06641ZM85.0775 21.0995C81.6227 21.0995 79.3926 18.2548 79.3926 13.8541C79.3926 9.44573 81.6615 6.4839 85.0476 6.4839C88.3786 6.4839 90.7041 9.46446 90.7041 13.7293C90.7011 18.2079 88.4964 21.0995 85.0775 21.0995Z" fill="white"/>
</svg>
