<svg width="40" height="39" viewBox="0 0 40 39" fill="none" xmlns="http://www.w3.org/2000/svg">
<path d="M39.7732 36.3735C36.8472 31.28 32.3381 27.6277 27.0759 25.8963C29.6788 24.3361 31.7011 21.9587 32.8323 19.1291C33.9634 16.2996 34.1408 13.1744 33.3372 10.2336C32.5337 7.29267 30.7936 4.69869 28.3842 2.84996C25.9748 1.00124 23.0293 0 20 0C16.9707 0 14.0252 1.00124 11.6158 2.84996C9.20642 4.69869 7.46632 7.29267 6.66276 10.2336C5.8592 13.1744 6.03661 16.2996 7.16774 19.1291C8.29888 21.9587 10.3212 24.3361 12.9241 25.8963C7.66191 27.6258 3.1528 31.2781 0.226774 36.3735C0.119472 36.5497 0.0482988 36.7457 0.0174547 36.95C-0.0133895 37.1543 -0.00328005 37.3628 0.0471865 37.5631C0.097653 37.7634 0.187455 37.9515 0.311292 38.1163C0.43513 38.2811 0.590496 38.4193 0.768223 38.5227C0.945949 38.626 1.14244 38.6925 1.34609 38.7182C1.54975 38.7438 1.75645 38.7282 1.95399 38.6721C2.15154 38.616 2.33593 38.5207 2.49629 38.3917C2.65665 38.2627 2.78973 38.1027 2.88767 37.9211C6.50725 31.6224 12.9049 27.8618 20 27.8618C27.0951 27.8618 33.4927 31.6224 37.1123 37.9211C37.2103 38.1027 37.3433 38.2627 37.5037 38.3917C37.6641 38.5207 37.8485 38.616 38.046 38.6721C38.2435 38.7282 38.4502 38.7438 38.6539 38.7182C38.8576 38.6925 39.054 38.626 39.2318 38.5227C39.4095 38.4193 39.5649 38.2811 39.6887 38.1163C39.8125 37.9515 39.9023 37.7634 39.9528 37.5631C40.0033 37.3628 40.0134 37.1543 39.9825 36.95C39.9517 36.7457 39.8805 36.5497 39.7732 36.3735ZM9.24115 13.9335C9.24115 11.7909 9.87215 9.69647 11.0543 7.91498C12.2365 6.13349 13.9168 4.74498 15.8828 3.92505C17.8487 3.10512 20.0119 2.89059 22.0989 3.30859C24.186 3.72658 26.103 4.75834 27.6077 6.27337C29.1123 7.7884 30.137 9.71868 30.5521 11.8201C30.9673 13.9215 30.7542 16.0997 29.9399 18.0792C29.1256 20.0587 27.7466 21.7506 25.9773 22.9409C24.208 24.1313 22.1279 24.7666 20 24.7666C17.1475 24.7635 14.4127 23.6212 12.3957 21.5903C10.3787 19.5593 9.2442 16.8057 9.24115 13.9335Z" fill="black"/>
</svg>
